<svg width="36" height="40" viewBox="0 0 36 40" fill="none" xmlns="http://www.w3.org/2000/svg">
<path d="M25.3507 8.96026C25.3507 8.97645 25.3507 8.97645 25.3507 8.99263C24.9883 8.97645 24.6258 8.96026 24.2343 8.96026H13.0693L14.6208 7.24436C16.0419 5.64178 17.6078 4.1687 19.4203 4.1687C21.2473 4.1687 22.8133 5.64178 24.2343 7.24436L25.0463 8.15087C25.2493 8.36131 25.3507 8.65269 25.3507 8.96026Z" fill="#242565"/>
<path d="M30.6409 22.2489C31.2064 22.2489 31.6559 21.7309 31.6559 21.0834V19.6589C31.6559 13.2972 29.9159 11.3708 24.2319 11.3708H15.097H11.4141C5.73021 11.3708 3.99023 13.3134 3.99023 19.6589V20.355C3.99023 21.0025 4.43973 21.5043 5.00522 21.5043C6.22321 21.5043 7.1947 22.6051 7.1947 23.9487C7.1947 25.2922 6.22321 26.4092 5.00522 26.4092C4.43973 26.4092 3.99023 26.911 3.99023 27.5585V28.2546C3.99023 34.6163 5.73021 36.5427 11.4141 36.5427H15.0825H24.2174C29.9014 36.5427 31.6414 34.6002 31.6414 28.2546C31.6414 27.6233 31.1919 27.1053 30.6264 27.1053C29.4084 27.1053 28.4369 26.0207 28.4369 24.6771C28.4514 23.3335 29.4229 22.2489 30.6409 22.2489ZM16.112 31.4597C16.112 32.0911 15.648 32.6091 15.0825 32.6091C14.5171 32.6091 14.0531 32.0911 14.0531 31.4597V27.1214C14.0531 26.4901 14.5171 25.9721 15.0825 25.9721C15.648 25.9721 16.112 26.4901 16.112 27.1214V31.4597ZM16.112 20.7921C16.112 21.4234 15.648 21.9414 15.0825 21.9414C14.5171 21.9414 14.0531 21.4234 14.0531 20.7921V16.4538C14.0531 15.8225 14.5171 15.3045 15.0825 15.3045C15.648 15.3045 16.112 15.8225 16.112 16.4538V20.7921Z" fill="#242565"/>
</svg>
